<?xml version="1.0" encoding="utf-8"?>
<!-- Generator: Adobe Illustrator 25.4.1, SVG Export Plug-In . SVG Version: 6.00 Build 0)  -->
<svg version="1.1" id="Layer_1" xmlns="http://www.w3.org/2000/svg" xmlns:xlink="http://www.w3.org/1999/xlink" x="0px" y="0px"
	 viewBox="0 0 24 24" style="enable-background:new 0 0 24 24;" xml:space="preserve">
<style type="text/css">
	.st0{fill:#1B2B85;}
</style>
<g id="YouTube">
	<path class="st0" d="M12,2C6.5,2,2,6.5,2,12s4.5,10,10,10s10-4.5,10-10S17.5,2,12,2z M17.8,14.9c-0.1,0.5-0.5,0.9-1.1,1.1
		c-1.6,0.2-3.1,0.3-4.7,0.3c-1.6,0-3.1-0.1-4.7-0.3c-0.5-0.1-0.9-0.5-1.1-1.1C6.1,14,6,13,6,12c0-1,0.1-1.9,0.2-2.9
		C6.4,8.6,6.8,8.1,7.3,8c1.6-0.2,3.1-0.3,4.7-0.2c1.6,0,3.1,0,4.7,0.2c0.5,0.1,0.9,0.5,1.1,1.1c0.2,1,0.3,2,0.2,2.9
		C18,13,17.9,13.9,17.8,14.9z"/>
	<polygon class="st0" points="10.8,13.8 13.9,12 10.8,10.2 	"/>
</g>
</svg>
